HIERARCHY
ROOT Hips
{
	OFFSET -0.001795 -0.223333 0.028219
	CHANNELS 6 Xposition Yposition Zposition Zrotation Yrotation Xrotation 
	JOINT LeftUpLeg
	{
		OFFSET 0.069520 -0.091406 -0.006815
		CHANNELS 3 Zrotation Yrotation Xrotation
		JOINT LeftLeg
		{
			OFFSET 0.034277 -0.375199 -0.004496
			CHANNELS 3 Zrotation Yrotation Xrotation
			JOINT LeftFoot
			{
				OFFSET -0.013596 -0.397961 -0.043693
				CHANNELS 3 Zrotation Yrotation Xrotation
				JOINT LeftToe
				{
					OFFSET 0.026358 -0.055791 0.119288
					CHANNELS 3 Zrotation Yrotation Xrotation
					End Site
					{
						OFFSET 0.000000 0.000000 0.000000
					}
				}
			}
		}
	}
	JOINT RightUpLeg
	{
		OFFSET -0.067670 -0.090522 -0.004320
		CHANNELS 3 Zrotation Yrotation Xrotation
		JOINT RightLeg
		{
			OFFSET -0.038290 -0.382569 -0.008850
			CHANNELS 3 Zrotation Yrotation Xrotation
			JOINT RightFoot
			{
				OFFSET 0.015774 -0.398415 -0.042312
				CHANNELS 3 Zrotation Yrotation Xrotation
				JOINT RightToe
				{
					OFFSET -0.025372 -0.048144 0.123348
					CHANNELS 3 Zrotation Yrotation Xrotation
					End Site
					{
						OFFSET 0.000000 0.000000 0.000000
					}
				}
			}
		}
	}
	JOINT Spine
	{
		OFFSET -0.002533 0.108963 -0.026696
		CHANNELS 3 Zrotation Yrotation Xrotation
		JOINT Spine1
		{
			OFFSET 0.005487 0.135180 0.001092
			CHANNELS 3 Zrotation Yrotation Xrotation
			JOINT Spine2
			{
				OFFSET 0.001457 0.052922 0.025425
				CHANNELS 3 Zrotation Yrotation Xrotation
				JOINT Neck
				{
					OFFSET -0.002778 0.213870 -0.042857
					CHANNELS 3 Zrotation Yrotation Xrotation
					JOINT Head
					{
						OFFSET 0.005152 0.064970 0.051349
						CHANNELS 3 Zrotation Yrotation Xrotation
						End Site
						{
							OFFSET 0.000000 0.000000 0.000000
						}
					}
				}
				JOINT LeftShoulder
				{
					OFFSET 0.078845 0.121749 -0.034090
					CHANNELS 3 Zrotation Yrotation Xrotation
					JOINT LeftArm
					{
						OFFSET 0.090977 0.030469 -0.008868
						CHANNELS 3 Zrotation Yrotation Xrotation
						JOINT LeftForeArm
						{
							OFFSET 0.259612 -0.012772 -0.027456
							CHANNELS 3 Zrotation Yrotation Xrotation
							JOINT LeftHand
							{
								OFFSET 0.249234 0.008986 -0.001171
								CHANNELS 3 Zrotation Yrotation Xrotation
								End Site
								{
									OFFSET 0.000000 0.000000 0.000000
								}
							}
						}
					}
				}
				JOINT RightShoulder
				{
					OFFSET -0.081759 0.118833 -0.038615
					CHANNELS 3 Zrotation Yrotation Xrotation
					JOINT RightArm
					{
						OFFSET -0.096012 0.032551 -0.009143
						CHANNELS 3 Zrotation Yrotation Xrotation
						JOINT RightForeArm
						{
							OFFSET -0.253742 -0.013329 -0.021401
							CHANNELS 3 Zrotation Yrotation Xrotation
							JOINT RightHand
							{
								OFFSET -0.255298 0.007772 -0.005559
								CHANNELS 3 Zrotation Yrotation Xrotation
								End Site
								{
									OFFSET 0.000000 0.000000 0.000000
								}
							}
						}
					}
				}
			}
		}
	}
}
MOTION
Frames: 17
Frame Time: 0.050000
0.000000 0.870757 0.000000 -1.842140 7.403920 -5.538524 17.023429 -1.252034 10.724958 -9.899531 1.653357 21.689861 9.957711 19.036077 -4.520161 0.000000 0.000000 0.000000 -12.288543 -0.394923 -14.774362 10.426242 -3.659706 28.847160 -7.517068 -18.633084 -4.159474 0.000000 0.000000 0.000000 8.102590 -0.860265 7.759839 -5.246543 2.238321 -18.754879 -4.650516 1.940265 26.604378 11.305540 -2.815824 -32.406164 0.000000 0.000000 0.000000 -23.889197 -19.508119 7.668632 -36.144702 -3.897026 -4.147880 -46.812046 -36.776865 17.280231 0.000000 0.000000 0.000000 29.592159 2.666610 2.747695 43.852945 5.258816 -5.344710 33.804922 40.164320 15.231574 0.000000 0.000000 0.000000 
-0.000733 0.865473 0.004856 -1.796012 5.700027 -4.550234 17.871619 -1.159186 9.605916 -10.749029 2.093750 23.473734 9.479241 18.406912 -4.070873 0.000000 0.000000 0.000000 -12.028100 -0.298017 -17.895848 10.075248 -3.659549 32.850832 -7.446931 -18.311659 -5.715883 0.000000 0.000000 0.000000 8.705308 -0.710073 6.131502 -5.986578 2.449313 -17.445819 -4.079971 2.988333 26.222444 10.491082 -2.457198 -31.726123 0.000000 0.000000 0.000000 -24.159922 -19.815204 7.888793 -36.077625 -3.329855 -4.248365 -46.867803 -35.504255 16.660781 0.000000 0.000000 0.000000 28.946837 3.521774 3.299448 46.309061 5.036538 -5.588695 32.555314 39.215029 14.459482 0.000000 0.000000 0.000000 
-0.001216 0.860316 0.008949 -1.720375 5.864758 -4.401573 17.593218 -1.215464 10.401864 -9.179342 1.591948 22.670096 10.038184 19.149656 -7.807182 0.000000 0.000000 0.000000 -13.034217 -0.471666 -17.644139 11.684192 -4.563173 34.307574 -7.365962 -18.087150 -8.071985 0.000000 0.000000 0.000000 9.127367 -0.680485 5.655332 -5.566686 2.327210 -17.451378 -4.858520 2.513175 27.310368 10.694196 -2.333730 -33.954072 0.000000 0.000000 0.000000 -23.090169 -19.331313 7.742087 -37.223446 -4.244705 -4.319313 -44.411528 -35.210486 15.708305 0.000000 0.000000 0.000000 30.483650 3.195177 3.051544 45.338148 5.290418 -5.548316 30.271302 39.028937 13.402872 0.000000 0.000000 0.000000 
-0.001615 0.859853 0.012659 -1.793704 5.112316 -4.401765 17.543245 -1.258348 11.805179 -9.057175 1.620762 22.764675 10.218628 19.934374 -4.629942 0.000000 0.000000 0.000000 -13.250504 -0.480023 -18.429413 11.683274 -4.606459 35.959679 -7.327444 -17.882224 -7.287868 0.000000 0.000000 0.000000 9.757531 -0.680510 5.446258 -5.950015 2.431221 -17.233972 -5.411403 2.231725 27.345303 10.182566 -2.105293 -34.416547 0.000000 0.000000 0.000000 -23.198895 -19.753651 8.245856 -36.852285 -3.687189 -4.476580 -43.925880 -35.376451 15.694218 0.000000 0.000000 0.000000 30.509884 3.641159 3.049219 45.423996 5.300408 -5.454139 32.610676 39.180102 14.322510 0.000000 0.000000 0.000000 
-0.002076 0.860185 0.016349 -2.006863 4.683218 -4.422910 17.235241 -1.162407 11.549159 -8.591553 1.509451 22.669007 10.790236 21.169836 -4.635175 0.000000 0.000000 0.000000 -12.941427 -0.408561 -18.840052 11.360524 -4.502822 37.100455 -7.261518 -17.666868 -6.602738 0.000000 0.000000 0.000000 9.858997 -0.662952 5.301869 -4.953397 2.138841 -16.440933 -6.354217 1.781948 26.296466 10.442405 -2.432201 -33.602805 0.000000 0.000000 0.000000 -23.042969 -19.389952 8.207861 -36.073838 -3.649364 -4.374980 -46.219268 -34.817903 16.280323 0.000000 0.000000 0.000000 30.879419 3.493695 2.585882 44.290086 4.435712 -5.446542 35.043608 39.273684 15.131507 0.000000 0.000000 0.000000 
-0.002548 0.860078 0.020407 -2.183406 4.550807 -4.520904 17.596084 -1.229045 11.949326 -8.746317 1.565975 22.676709 10.743664 21.085729 -4.834420 0.000000 0.000000 0.000000 -12.556989 -0.330839 -18.676771 10.837697 -4.328526 38.051354 -7.064695 -17.096510 -7.010485 0.000000 0.000000 0.000000 9.992622 -0.589041 4.725926 -4.945240 2.131232 -16.520375 -6.310318 1.732220 26.650558 10.043324 -2.278325 -33.472455 0.000000 0.000000 0.000000 -22.654301 -19.723075 8.427079 -36.246838 -3.327407 -4.522530 -48.974004 -34.306702 17.046632 0.000000 0.000000 0.000000 30.536135 3.529335 2.571373 43.795906 3.293643 -5.783029 39.384297 39.892052 17.191218 0.000000 0.000000 0.000000 
-0.002979 0.858572 0.024383 -2.323706 4.747783 -4.713196 17.824805 -1.275837 11.996427 -8.725270 1.552163 23.135887 10.699995 20.965435 -4.706455 0.000000 0.000000 0.000000 -12.289096 -0.308623 -18.888494 10.368553 -4.285464 39.522533 -6.770513 -16.251932 -7.148251 0.000000 0.000000 0.000000 9.883844 -0.541657 4.441423 -4.383308 1.975468 -15.850646 -6.921179 1.082882 25.713101 10.067635 -2.439646 -32.798892 0.000000 0.000000 0.000000 -22.336552 -19.514219 8.396322 -34.979027 -2.935251 -4.437070 -53.223013 -35.004313 19.031162 0.000000 0.000000 0.000000 29.663070 3.553233 2.315930 42.409640 2.116088 -5.831599 45.434745 41.154903 20.297995 0.000000 0.000000 0.000000 
-0.003337 0.855741 0.028012 -2.548713 4.883591 -4.929291 17.998979 -1.297644 11.907003 -8.410667 1.458233 24.053374 10.696236 20.859353 -6.320255 0.000000 0.000000 0.000000 -12.008509 -0.275613 -18.941488 10.162110 -4.381901 41.211171 -6.795946 -16.262536 -8.098791 0.000000 0.000000 0.000000 9.909460 -0.530517 4.394569 -4.072299 1.879398 -15.974496 -7.079519 1.266276 25.540615 10.422426 -2.583912 -32.706730 0.000000 0.000000 0.000000 -21.803202 -19.975724 8.507612 -34.196235 -3.192467 -4.239165 -56.969624 -36.374712 21.269796 0.000000 0.000000 0.000000 28.969460 3.673379 2.502682 40.213144 1.913109 -5.645504 50.985665 42.732426 23.752954 0.000000 0.000000 0.000000 
-0.003633 0.851218 0.030623 -2.727894 5.433852 -5.349968 18.408959 -1.410518 12.120045 -8.587204 1.474285 24.675932 11.118248 21.600682 -7.651449 0.000000 0.000000 0.000000 -12.097917 -0.337803 -18.799862 10.393344 -4.775655 42.600603 -6.885508 -16.478701 -9.321366 0.000000 0.000000 0.000000 9.871727 -0.526898 4.448350 -3.964242 1.861609 -16.088831 -7.337049 1.224381 25.350963 10.581394 -2.618189 -32.670490 0.000000 0.000000 0.000000 -21.944316 -20.050197 8.435412 -33.200885 -3.971540 -3.884563 -59.516329 -38.577589 23.692771 0.000000 0.000000 0.000000 28.229461 3.944668 2.779694 37.599870 1.567903 -5.415525 55.514908 43.865127 26.598839 0.000000 0.000000 0.000000 
-0.004062 0.847124 0.032128 -2.892765 5.867725 -5.411743 18.711614 -1.461041 11.772293 -8.883014 1.543419 25.644917 11.363014 22.012364 -9.135226 0.000000 0.000000 0.000000 -12.042463 -0.367332 -19.137046 10.447934 -5.092970 44.187870 -7.064794 -17.014130 -10.023089 0.000000 0.000000 0.000000 10.015436 -0.525836 4.381912 -4.057902 1.900588 -16.247469 -7.338954 1.552471 25.348302 11.115112 -2.784971 -32.738002 0.000000 0.000000 0.000000 -21.744392 -20.367446 8.396698 -33.050311 -5.460825 -3.458654 -60.433457 -41.005107 25.628435 0.000000 0.000000 0.000000 27.797785 4.175745 3.155964 35.594903 1.516206 -5.224605 58.780501 45.749833 29.612547 0.000000 0.000000 0.000000 
-0.004740 0.844298 0.032735 -3.015601 6.409411 -5.347044 19.201812 -1.546535 11.374651 -8.960988 1.523376 25.832777 11.777104 22.815893 -9.701697 0.000000 0.000000 0.000000 -12.257758 -0.439619 -18.998111 10.876492 -5.512361 44.502695 -7.362339 -17.980564 -10.691460 0.000000 0.000000 0.000000 10.076815 -0.499441 4.110292 -4.263387 1.971640 -16.557491 -7.208278 1.500013 25.734750 11.062823 -2.679258 -33.010345 0.000000 0.000000 0.000000 -21.949886 -20.698047 8.517261 -33.523588 -6.992026 -3.130854 -59.178431 -43.603735 26.757440 0.000000 0.000000 0.000000 27.316794 4.545099 3.497613 34.770125 2.051237 -5.029772 58.603065 47.704971 30.901282 0.000000 0.000000 0.000000 
-0.005641 0.843031 0.032751 -3.122179 6.805868 -5.014056 19.818255 -1.649419 11.006309 -9.462429 1.647710 25.443938 11.848131 22.895546 -9.879617 0.000000 0.000000 0.000000 -12.303900 -0.472932 -19.217536 11.093785 -5.758280 44.615908 -7.688289 -19.070284 -11.109418 0.000000 0.000000 0.000000 10.075240 -0.485039 3.889548 -4.350963 2.003145 -16.681913 -7.203409 1.324978 25.315436 11.363912 -2.786786 -33.099532 0.000000 0.000000 0.000000 -22.257975 -20.189208 8.207325 -34.033195 -7.948116 -2.899974 -57.685485 -45.179033 27.052488 0.000000 0.000000 0.000000 27.565959 4.633973 3.583282 34.082480 2.594125 -4.795600 57.867334 48.687849 31.116798 0.000000 0.000000 0.000000 
-0.006511 0.843564 0.032663 -3.226019 6.991965 -4.817218 19.966470 -1.668220 10.736693 -9.523505 1.644918 25.020236 11.706962 22.525574 -10.027232 0.000000 0.000000 0.000000 -12.266955 -0.466977 -19.015715 11.243283 -5.769097 43.666816 -8.020712 -20.184393 -11.133567 0.000000 0.000000 0.000000 10.160597 -0.505528 3.953075 -4.641133 2.091952 -16.852927 -6.956518 1.175436 24.887315 11.556498 -2.863355 -33.160040 0.000000 0.000000 0.000000 -22.554633 -20.217281 8.233880 -34.628444 -8.525370 -2.765159 -56.672441 -46.334136 27.309522 0.000000 0.000000 0.000000 28.479526 4.446823 3.488838 33.313098 3.053376 -4.591612 56.673701 49.973421 31.241089 0.000000 0.000000 0.000000 
-0.007040 0.844573 0.032701 -3.317142 7.123158 -4.601805 20.206441 -1.708125 10.588635 -9.669037 1.672377 24.473718 11.636486 22.365823 -9.148190 0.000000 0.000000 0.000000 -12.124226 -0.440472 -18.944129 11.311413 -5.749230 42.958278 -8.378912 -21.331857 -10.869075 0.000000 0.000000 0.000000 10.117105 -0.541000 4.166800 -4.689238 2.093480 -17.472669 -6.745058 1.056452 24.568693 11.695214 -2.901338 -33.332076 0.000000 0.000000 0.000000 -22.755610 -19.987158 8.119229 -35.123742 -8.783406 -2.719038 -55.946609 -46.924946 27.338250 0.000000 0.000000 0.000000 28.724683 4.402365 3.447414 32.865002 3.404455 -4.445220 56.141163 50.336591 31.128036 0.000000 0.000000 0.000000 
-0.007159 0.846185 0.032913 -3.245206 7.121500 -4.596604 20.008575 -1.681720 10.616770 -9.772241 1.693658 23.921115 11.419181 21.885388 -8.870373 0.000000 0.000000 0.000000 -12.279798 -0.458621 -18.595699 11.397264 -5.679499 42.120092 -8.421480 -21.430928 -10.385743 0.000000 0.000000 0.000000 10.254722 -0.568189 4.322824 -4.896066 2.156752 -17.450137 -6.566686 0.915004 24.344769 11.693292 -2.878770 -33.560624 0.000000 0.000000 0.000000 -23.014482 -19.930205 8.145755 -34.907096 -8.485160 -2.773616 -56.004152 -47.200190 27.566275 0.000000 0.000000 0.000000 28.984814 4.371749 3.363844 32.208555 3.674239 -4.282356 56.642279 50.088412 31.144413 0.000000 0.000000 0.000000 
-0.007067 0.847457 0.033273 -3.169914 6.964085 -4.465015 19.854006 -1.627360 10.424765 -9.743913 1.693569 23.636396 11.156168 21.355665 -8.579251 0.000000 0.000000 0.000000 -12.698162 -0.520533 -18.585371 11.566279 -5.659578 41.630172 -8.262722 -20.919788 -10.314400 0.000000 0.000000 0.000000 10.586593 -0.608164 4.480543 -4.914840 2.157882 -17.441730 -6.615677 1.032589 23.889445 11.992233 -3.022044 -33.466506 0.000000 0.000000 0.000000 -23.314576 -19.968993 8.164336 -34.094572 -7.834207 -2.831669 -57.272665 -47.238191 28.226118 0.000000 0.000000 0.000000 29.098389 4.621718 3.523485 31.408548 3.591152 -4.178131 58.247037 50.122812 32.023209 0.000000 0.000000 0.000000 
-0.007228 0.848501 0.033511 -3.134853 6.816219 -4.454308 19.651101 -1.593939 10.514882 -9.666079 1.680117 23.523016 11.138968 21.357743 -8.370611 0.000000 0.000000 0.000000 -12.738161 -0.513872 -18.492092 11.486034 -5.520038 41.176320 -8.165022 -20.628479 -10.478398 0.000000 0.000000 0.000000 10.869766 -0.642796 4.635302 -4.773311 2.103529 -17.742597 -6.590230 1.105580 24.026234 12.515289 -3.260178 -33.663464 0.000000 0.000000 0.000000 -23.182449 -19.858391 8.106676 -33.611982 -7.179252 -2.969686 -58.494031 -47.080587 28.763040 0.000000 0.000000 0.000000 29.010495 4.635316 3.518102 30.003132 3.555957 -4.022911 60.749931 49.184648 32.684598 0.000000 0.000000 0.000000 
